<?xml version="1.0" standalone="no"?>
<!DOCTYPE svg PUBLIC "-//W3C//DTD SVG 20010904//EN"
 "http://www.w3.org/TR/2001/REC-SVG-20010904/DTD/svg10.dtd">
<svg version="1.0" xmlns="http://www.w3.org/2000/svg"
 width="16.000000pt" height="16.000000pt" viewBox="0 0 16.000000 16.000000"
 preserveAspectRatio="xMidYMid meet">
<metadata>
Created by potrace 1.11, written by Peter Selinger 2001-2013
</metadata>
<g transform="translate(0.000000,16.000000) scale(0.002778,-0.002778)"
fill="#000000" stroke="none">
<path d="M2136 5739 c-22 -11 -69 -39 -105 -61 -36 -23 -75 -46 -86 -52 -136
-76 -348 -213 -364 -234 -18 -26 -20 -46 -21 -250 0 -141 3 -229 10 -242 14
-27 46 -25 89 4 131 86 517 306 540 306 14 0 42 -10 61 -22 19 -11 49 -29 65
-38 17 -10 126 -74 244 -144 197 -115 216 -125 235 -112 20 13 21 24 24 244
l2 231 -27 30 c-38 41 -559 353 -597 358 -19 2 -46 -5 -70 -18z"/>
<path d="M2108 5084 c-29 -18 -97 -59 -151 -91 -54 -32 -111 -66 -125 -75 -15
-10 -34 -21 -42 -25 -67 -34 -191 -118 -206 -140 -18 -26 -19 -54 -20 -380
l-1 -353 26 -29 c14 -17 121 -86 236 -156 116 -69 217 -129 225 -135 109 -69
155 -81 207 -53 35 19 301 180 450 271 51 31 101 68 110 81 15 22 17 64 17
370 1 297 -1 350 -15 373 -14 26 -52 60 -74 69 -6 2 -92 54 -193 114 -100 61
-199 120 -220 133 -121 73 -142 75 -224 26z"/>
<path d="M3522 5114 c-19 -8 -325 -192 -339 -204 -7 -5 -14 -10 -17 -10 -17 0
-212 -129 -225 -150 -14 -21 -16 -69 -17 -365 0 -187 3 -352 8 -367 10 -27 43
-56 108 -95 19 -11 134 -80 255 -154 197 -119 225 -133 265 -133 31 0 59 9 90
28 486 294 516 313 530 342 11 23 14 91 15 359 0 182 -1 340 -3 353 -4 22 -66
92 -82 92 -5 0 -68 37 -142 81 -151 93 -153 94 -280 169 -87 51 -135 67 -166
54z"/>
<path d="M1474 3905 c-16 -7 -148 -85 -293 -173 -206 -124 -269 -167 -282
-191 -15 -28 -17 -70 -18 -349 0 -174 2 -334 5 -354 3 -20 16 -47 29 -60 17
-18 263 -170 423 -263 9 -6 45 -27 80 -48 102 -60 96 -62 417 132 154 93 288
180 299 194 17 23 18 49 19 376 0 394 3 375 -78 430 -25 17 -48 31 -49 31 -2
0 -107 63 -234 139 -127 77 -244 142 -259 144 -16 3 -43 -1 -59 -8z"/>
<path d="M2830 3901 c-50 -26 -91 -49 -214 -124 -59 -37 -109 -67 -111 -67 -1
0 -56 -33 -202 -122 -59 -36 -61 -47 -59 -430 l1 -347 30 -31 c17 -18 39 -36
50 -41 11 -5 38 -20 60 -34 22 -14 56 -34 75 -45 19 -11 114 -68 210 -126 96
-58 186 -107 200 -108 32 -3 53 8 225 112 77 47 156 94 176 106 162 93 219
133 231 160 8 21 12 124 12 364 1 355 -2 383 -47 412 -157 100 -552 329 -574
334 -17 3 -41 -1 -63 -13z"/>
<path d="M4193 3903 c-91 -45 -550 -332 -566 -355 -19 -26 -20 -43 -20 -378 0
-330 2 -353 20 -377 15 -21 421 -278 473 -300 8 -4 34 -19 58 -35 79 -54 90
-50 372 122 8 5 83 50 166 100 91 56 157 102 166 118 23 40 24 691 1 739 -11
25 -45 50 -136 106 -67 40 -155 93 -195 118 -41 24 -88 53 -105 63 -18 10 -45
27 -62 37 -96 59 -125 66 -172 42z"/>
<path d="M2148 2691 c-36 -18 -163 -93 -383 -226 -77 -47 -147 -88 -155 -93
-8 -5 -23 -24 -32 -43 -16 -30 -18 -70 -18 -369 0 -299 2 -339 18 -369 14 -29
60 -61 272 -187 140 -84 260 -157 266 -163 22 -19 85 -30 111 -20 14 5 147 82
296 172 190 114 275 171 288 192 17 28 19 57 19 373 0 284 -3 348 -15 372 -12
23 -133 108 -200 140 -6 3 -62 36 -125 75 -63 38 -123 74 -132 80 -9 5 -38 23
-65 39 -69 41 -106 48 -145 27z"/>
<path d="M3524 2696 c-47 -17 -548 -324 -575 -352 l-24 -26 -1 -336 c-1 -185
1 -350 4 -365 7 -39 40 -67 167 -141 61 -36 115 -68 120 -73 6 -5 48 -31 95
-58 47 -27 101 -60 120 -73 54 -37 112 -60 141 -57 21 2 123 59 247 137 15 10
34 21 42 25 9 5 82 48 162 97 121 73 150 95 160 122 10 25 13 115 13 373 -1
328 -1 341 -21 368 -23 31 -556 357 -596 365 -13 2 -37 0 -54 -6z"/>
<path d="M2851 1488 c-46 -17 -546 -321 -576 -349 l-30 -29 -1 -348 c-1 -191
3 -358 8 -372 9 -23 65 -79 81 -80 4 0 66 -36 138 -80 71 -44 134 -80 140 -80
5 0 9 -4 9 -9 0 -5 8 -11 18 -15 9 -3 26 -11 36 -18 11 -7 51 -32 89 -56 115
-72 105 -75 439 126 238 144 288 178 299 205 10 23 13 116 13 374 0 324 -1
344 -20 369 -10 14 -93 71 -184 125 -91 54 -172 103 -180 109 -8 5 -40 24 -70
41 -30 18 -74 45 -97 61 -24 16 -43 27 -43 24 0 -3 -10 -2 -22 3 -13 5 -34 5
-47 -1z"/>
</g>
</svg>
