<?xml version="1.0" standalone="no"?>
<!DOCTYPE svg PUBLIC "-//W3C//DTD SVG 20010904//EN"
 "http://www.w3.org/TR/2001/REC-SVG-20010904/DTD/svg10.dtd">
<svg version="1.0" xmlns="http://www.w3.org/2000/svg"
 width="288.000000pt" height="288.000000pt" viewBox="0 0 288.000000 288.000000"
 preserveAspectRatio="xMidYMid meet">
<metadata>
Created by potrace 1.11, written by Peter Selinger 2001-2013
</metadata>
<g transform="translate(0.000000,288.000000) scale(0.100000,-0.100000)"
fill="#000000" stroke="none">
<path d="M1440 2880 c-1 -3 -4 -48 -5 -100 -3 -88 -7 -107 -60 -250 -63 -172
-65 -181 -55 -195 3 -5 17 -39 29 -75 12 -36 26 -74 31 -85 40 -95 44 -116 49
-243 4 -72 3 -132 -1 -132 -3 0 -11 12 -16 28 -14 36 -115 254 -125 270 -8 12
-48 32 -258 130 l-87 40 21 -47 c11 -25 46 -102 78 -171 57 -121 60 -125 106
-147 26 -12 101 -47 166 -77 l117 -55 0 -130 c0 -72 -2 -131 -4 -131 -2 0 -34
68 -72 152 l-69 151 -120 57 c-201 94 -210 98 -213 91 -1 -5 29 -76 68 -160
38 -83 70 -155 70 -160 0 -4 28 -21 63 -36 34 -16 100 -46 147 -68 47 -21 95
-43 108 -48 21 -8 22 -13 22 -146 l-1 -138 -37 80 c-21 44 -53 115 -72 157
l-35 77 -70 32 c-38 18 -112 52 -162 76 -96 45 -123 53 -106 31 6 -7 31 -58
56 -113 104 -229 91 -209 149 -235 29 -13 104 -47 166 -77 l112 -53 -1 -137
c0 -113 -2 -134 -12 -113 -6 14 -39 85 -73 158 l-61 134 -159 74 c-157 73
-197 87 -176 62 5 -7 41 -82 80 -167 57 -126 75 -156 98 -167 104 -49 244
-112 272 -123 l32 -13 0 -142 0 -141 -73 159 c-39 87 -79 163 -87 167 -27 16
-319 149 -325 149 -2 0 7 -21 20 -48 12 -26 32 -67 43 -92 98 -216 85 -197
149 -226 63 -28 164 -75 231 -106 l42 -20 0 -294 c0 -189 4 -294 10 -294 12 0
11 -20 10 491 l0 396 160 73 c88 40 164 78 169 84 12 14 151 315 151 326 0 5
-30 -6 -67 -24 -38 -18 -112 -52 -166 -77 l-99 -44 -45 -95 c-24 -52 -52 -113
-60 -135 -37 -93 -42 -87 -42 54 l-1 132 103 48 c56 26 131 61 166 76 60 27
65 32 91 89 15 34 42 93 60 131 18 39 41 89 51 112 l18 43 -47 -24 c-26 -13
-69 -34 -97 -46 -138 -62 -194 -90 -201 -102 -5 -7 -37 -76 -72 -153 -35 -77
-66 -142 -68 -144 -2 -2 -3 57 -3 132 l1 136 31 14 c18 8 52 24 77 35 230 104
217 95 249 164 16 35 50 107 75 162 25 54 46 102 46 107 0 8 -49 -13 -235
-100 l-101 -48 -44 -98 c-25 -55 -57 -124 -71 -154 l-27 -56 -1 133 -1 133
118 55 c64 31 139 65 165 76 39 17 51 29 69 67 65 144 82 181 108 234 15 31
24 57 20 57 -16 0 -340 -153 -340 -160 0 -4 -25 -61 -56 -126 -31 -66 -61
-130 -68 -144 -9 -21 -11 -7 -14 84 l-3 109 62 168 62 168 -23 63 c-12 35 -26
72 -31 83 -50 114 -63 165 -69 270 -4 61 -8 108 -10 105z"/>
<path d="M1827 1053 c-15 -14 -7 -43 12 -43 23 0 35 36 14 44 -18 7 -18 7 -26
-1z"/>
<path d="M1880 1050 c0 -5 -3 -15 -6 -24 -5 -12 0 -16 20 -16 32 0 37 35 6 43
-11 3 -20 1 -20 -3z"/>
<path d="M1757 985 c-7 -18 4 -35 24 -35 13 0 19 7 19 23 0 16 -6 23 -20 23
-11 0 -21 -5 -23 -11z"/>
<path d="M1817 978 c-6 -21 1 -28 25 -28 12 0 18 7 18 23 0 28 -36 32 -43 5z"/>
<path d="M1877 985 c-7 -18 4 -35 24 -35 13 0 19 7 19 23 0 16 -6 23 -20 23
-11 0 -21 -5 -23 -11z"/>
<path d="M1630 915 c0 -18 5 -25 20 -25 24 0 28 35 4 44 -23 9 -24 8 -24 -19z"/>
<path d="M1690 913 c0 -16 6 -23 20 -23 15 0 20 7 20 24 0 19 -5 24 -20 23
-14 -1 -20 -8 -20 -24z"/>
<path d="M1750 914 c0 -18 5 -24 21 -24 15 0 20 5 17 22 -4 31 -38 33 -38 2z"/>
<path d="M1810 914 c0 -18 5 -24 21 -24 15 0 20 5 17 22 -4 31 -38 33 -38 2z"/>
<path d="M1560 855 c0 -18 5 -25 20 -25 11 0 20 7 20 15 0 8 1 18 3 22 1 3 -8
8 -20 9 -19 3 -23 -1 -23 -21z"/>
<path d="M1625 872 c-14 -14 -3 -42 15 -42 14 0 20 7 20 23 0 21 -21 33 -35
19z"/>
<path d="M1685 872 c-14 -14 -3 -42 15 -42 14 0 20 7 20 23 0 21 -21 33 -35
19z"/>
<path d="M1746 872 c-14 -14 -5 -42 14 -42 11 0 20 7 20 15 0 8 1 18 3 22 3 8
-30 13 -37 5z"/>
<path d="M1806 872 c-14 -13 -5 -42 13 -42 26 0 35 37 10 43 -10 3 -20 2 -23
-1z"/>
<path d="M1537 798 c-6 -21 1 -28 25 -28 12 0 18 7 18 23 0 28 -36 32 -43 5z"/>
<path d="M1597 813 c-11 -11 7 -43 25 -43 14 0 19 6 16 22 -3 19 -30 33 -41
21z"/>
<path d="M1657 807 c-7 -20 4 -37 25 -37 14 0 19 6 16 22 -3 23 -34 34 -41 15z"/>
<path d="M1717 807 c-7 -20 4 -37 25 -37 14 0 19 6 16 22 -3 23 -34 34 -41 15z"/>
<path d="M1777 807 c-7 -20 4 -37 25 -37 14 0 19 6 16 22 -3 23 -34 34 -41 15z"/>
<path d="M1499 757 c-1 -1 -3 -12 -4 -24 -2 -18 3 -23 21 -23 19 0 23 5 21 22
-2 12 -11 22 -20 24 -10 1 -18 2 -18 1z"/>
<path d="M1559 757 c0 -1 -2 -12 -5 -24 -3 -19 1 -23 21 -23 31 0 35 35 5 43
-11 3 -20 4 -21 4z"/>
<path d="M1616 750 c-8 -17 2 -35 20 -38 17 -2 22 2 22 20 0 17 -6 24 -20 24
-11 0 -21 -3 -22 -6z"/>
<path d="M1679 757 c0 -1 -2 -12 -5 -24 -3 -19 1 -23 21 -23 31 0 35 35 5 43
-11 3 -20 4 -21 4z"/>
<path d="M1745 752 c-18 -13 -11 -37 13 -40 23 -3 27 4 16 32 -7 18 -14 19
-29 8z"/>
<path d="M1560 680 c-11 -20 -4 -30 20 -30 12 0 18 8 18 23 0 28 -25 32 -38 7z"/>
<path d="M1617 692 c-9 -19 1 -37 21 -40 16 -3 22 2 22 16 0 19 -36 38 -43 24z"/>
<path d="M1690 691 c-22 -9 -18 -36 5 -39 15 -2 21 3 22 17 2 24 -6 31 -27 22z"/>
<path d="M1494 674 c3 -9 6 -18 6 -20 0 -2 9 -4 20 -4 13 0 20 7 20 20 0 15
-7 20 -26 20 -20 0 -25 -4 -20 -16z"/>
<path d="M1483 633 c-22 -8 -15 -43 7 -43 13 0 20 7 20 19 0 22 -9 30 -27 24z"/>
<path d="M1530 614 c0 -17 6 -24 19 -24 24 0 32 12 21 30 -15 24 -40 21 -40
-6z"/>
</g>
</svg>
